HIERARCHY
ROOT hip
{
  OFFSET 0 0 0
  CHANNELS 6 Xposition Yposition Zposition Zrotation Yrotation Xrotation
  JOINT abdomen
  {
    OFFSET 0 20.6881 -0.73152
    CHANNELS 3 Zrotation Xrotation Yrotation
    JOINT chest
    {
      OFFSET 0 11.7043 -0.48768
      CHANNELS 3 Zrotation Xrotation Yrotation
      JOINT neck
      {
        OFFSET 0 22.1894 -2.19456
        CHANNELS 3 Zrotation Xrotation Yrotation
        JOINT head
        {
          OFFSET -0.24384 7.07133 1.2192
          CHANNELS 3 Zrotation Xrotation Yrotation
          JOINT leftEye
          {
            OFFSET 4.14528 8.04674 8.04672
            CHANNELS 3 Zrotation Xrotation Yrotation
            End Site
            {
              OFFSET 1 0 0
            }
          }
          JOINT rightEye
          {
            OFFSET -3.6576 8.04674 8.04672
            CHANNELS 3 Zrotation Xrotation Yrotation
            End Site
            {
              OFFSET 1 0 0
            }
          }
        }
      }
      JOINT rCollar
      {
        OFFSET -2.68224 19.2634 -4.8768
        CHANNELS 3 Zrotation Xrotation Yrotation
        JOINT rShldr
        {
          OFFSET -8.77824 -1.95073 1.46304
          CHANNELS 3 Zrotation Xrotation Yrotation
          JOINT rForeArm
          {
            OFFSET -28.1742 -1.7115 0.48768
            CHANNELS 3 Zrotation Xrotation Yrotation
            JOINT rHand
            {
              OFFSET -22.5879 0.773209 7.07136
              CHANNELS 3 Zrotation Xrotation Yrotation
              JOINT rThumb1
              {
                OFFSET -1.2192 -0.487915 3.41376
                CHANNELS 3 Zrotation Xrotation Yrotation
                JOINT rThumb2
                {
                  OFFSET -3.37035 -0.52449 3.41376
                  CHANNELS 3 Zrotation Xrotation Yrotation
                  End Site
                  {
                    OFFSET -1.78271 -1.18214 1.43049
                  }
                }
              }
              JOINT rIndex1
              {
                OFFSET -7.75947 0.938293 5.60832
                CHANNELS 3 Zrotation Xrotation Yrotation
                JOINT rIndex2
                {
                  OFFSET -2.54057 -0.884171 1.56538
                  CHANNELS 3 Zrotation Xrotation Yrotation
                  End Site
                  {
                    OFFSET -1.62519 -0.234802 1.16502
                  }
                }
              }
              JOINT rMid1
              {
                OFFSET -8.24714 1.18213 3.41376
                CHANNELS 3 Zrotation Xrotation Yrotation
                JOINT rMid2
                {
                  OFFSET -3.10165 -0.590103 1.0647
                  CHANNELS 3 Zrotation Xrotation Yrotation
                  End Site
                  {
                    OFFSET -2.48547 -0.328903 0.83742
                  }
                }
              }
              JOINT rRing1
              {
                OFFSET -8.82822 0.546677 1.51678
                CHANNELS 3 Zrotation Xrotation Yrotation
                JOINT rRing2
                {
                  OFFSET -2.60934 -0.819778 -0.0198488
                  CHANNELS 3 Zrotation Xrotation Yrotation
                  End Site
                  {
                    OFFSET -2.33842 -0.294052 0.168128
                  }
                }
              }
              JOINT rPinky1
              {
                OFFSET -8.27202 -0.0477905 -0.4584
                CHANNELS 3 Zrotation Xrotation Yrotation
                JOINT rPinky2
                {
                  OFFSET -1.82734 -0.647385 -0.700984
                  CHANNELS 3 Zrotation Xrotation Yrotation
                  End Site
                  {
                    OFFSET -1.69225 -0.51767 -0.607171
                  }
                }
              }
            }
          }
        }
      }
      JOINT lCollar
      {
        OFFSET 2.68224 19.2634 -4.8768
        CHANNELS 3 Zrotation Xrotation Yrotation
        JOINT lShldr
        {
          OFFSET 8.77824 -1.95073 1.46304
          CHANNELS 3 Zrotation Xrotation Yrotation
          JOINT lForeArm
          {
            OFFSET 28.1742 -1.7115 0.48768
            CHANNELS 3 Zrotation Xrotation Yrotation
            JOINT lHand
            {
              OFFSET 22.5879 0.773209 7.07136
              CHANNELS 3 Zrotation Xrotation Yrotation
              JOINT lThumb1
              {
                OFFSET 1.2192 -0.487915 3.41376
                CHANNELS 3 Zrotation Xrotation Yrotation
                JOINT lThumb2
                {
                  OFFSET 3.37035 -0.52449 3.41376
                  CHANNELS 3 Zrotation Xrotation Yrotation
                  End Site
                  {
                    OFFSET 1.78271 -1.18214 1.43049
                  }
                }
              }
              JOINT lIndex1
              {
                OFFSET 7.75947 0.938293 5.60832
                CHANNELS 3 Zrotation Xrotation Yrotation
                JOINT lIndex2
                {
                  OFFSET 2.54057 -0.884171 1.56538
                  CHANNELS 3 Zrotation Xrotation Yrotation
                  End Site
                  {
                    OFFSET 1.62519 -0.234802 1.16502
                  }
                }
              }
              JOINT lMid1
              {
                OFFSET 8.24714 1.18213 3.41376
                CHANNELS 3 Zrotation Xrotation Yrotation
                JOINT lMid2
                {
                  OFFSET 3.10165 -0.590103 1.0647
                  CHANNELS 3 Zrotation Xrotation Yrotation
                  End Site
                  {
                    OFFSET 2.48547 -0.328903 0.83742
                  }
                }
              }
              JOINT lRing1
              {
                OFFSET 8.82822 0.546677 1.51678
                CHANNELS 3 Zrotation Xrotation Yrotation
                JOINT lRing2
                {
                  OFFSET 2.60934 -0.819778 -0.0198488
                  CHANNELS 3 Zrotation Xrotation Yrotation
                  End Site
                  {
                    OFFSET 2.33842 -0.294052 0.168128
                  }
                }
              }
              JOINT lPinky1
              {
                OFFSET 8.27202 -0.0477905 -0.4584
                CHANNELS 3 Zrotation Xrotation Yrotation
                JOINT lPinky2
                {
                  OFFSET 1.82734 -0.647385 -0.700984
                  CHANNELS 3 Zrotation Xrotation Yrotation
                  End Site
                  {
                    OFFSET 1.69225 -0.51767 -0.607171
                  }
                }
              }
            }
          }
        }
      }
    }
  }
  JOINT rButtock
  {
    OFFSET -8.77824 4.35084 1.2192
    CHANNELS 3 Zrotation Xrotation Yrotation
    JOINT rThigh
    {
      OFFSET 0 -1.70687 -2.19456
      CHANNELS 3 Zrotation Xrotation Yrotation
      JOINT rShin
      {
        OFFSET 0 -36.8199 0.73152
        CHANNELS 3 Zrotation Xrotation Yrotation
        JOINT rFoot
        {
          OFFSET 0.73152 -45.1104 -5.12064
          CHANNELS 3 Zrotation Xrotation Yrotation
          End Site
          {
            OFFSET -1.1221 -3.69964 12.103
          }
        }
      }
    }
  }
  JOINT lButtock
  {
    OFFSET 8.77824 4.35084 1.2192
    CHANNELS 3 Zrotation Xrotation Yrotation
    JOINT lThigh
    {
      OFFSET 0 -1.70687 -2.19456
      CHANNELS 3 Zrotation Xrotation Yrotation
      JOINT lShin
      {
        OFFSET 0 -36.8199 0.73152
        CHANNELS 3 Zrotation Xrotation Yrotation
        JOINT lFoot
        {
          OFFSET -0.73152 -45.1104 -5.12064
          CHANNELS 3 Zrotation Xrotation Yrotation
          End Site
          {
            OFFSET 1.1221 -3.69964 12.103
          }
        }
      }
    }
  }
}
MOTION
Frames:	4
Frame Time:	0.03333
-1.0280442424118519 24.10065084695816 0.37568192929029465 -2.244420051574707 -0.48047757148742676 2.2120940685272217 -1.2643373012542725 6.740386486053467 1.5741442441940308 2.292025566101074 -5.8239312171936035 0.8725789785385132 -2.122605085372925 7.848544120788574 -1.575326919555664 3.604367971420288 -10.619966506958008 -2.0934252738952637 0.1431766003370285 0.16850803792476654 0.17247076332569122 -0.2768697738647461 -0.21182577311992645 -0.18398797512054443 -0.1528106927871704 0.4594251215457916 -0.4284673035144806 13.643232345581055 8.261207580566406 9.151100158691406 -13.189010620117188 -7.479846477508545 16.72551727294922 0.1631205677986145 -5.092835426330566 -0.5939843058586121 -0.35828694701194763 0.2841658294200897 0.15737982094287872 -0.021106023341417313 -0.14071740210056305 -0.11981287598609924 0.3783382177352905 0.16105401515960693 0.019825803115963936 3.1945478916168213 2.5693819522857666 0.265032023191452 0.41351452469825745 0.2039884477853775 -0.35405319929122925 2.8513548374176025 0.8929858207702637 -0.19013778865337372 0.5567429065704346 0.22111459076404572 -0.02359173633158207 5.434279918670654 0.4438895881175995 0.27759894728660583 0.06571860611438751 -0.43569210171699524 -0.21500693261623383 1.7158844470977783 -0.6234845519065857 -0.2633582055568695 -0.213060200214386 -0.20482657849788666 -0.44124630093574524 -15.995650291442871 9.34146499633789 -11.78681755065918 11.747302055358887 -6.804378509521484 -16.45677375793457 -0.3964655101299286 -4.503664016723633 0.2238021194934845 0.004519968759268522 0.250033438205719 -0.13290458917617798 -0.25173625349998474 -0.05014223977923393 0.13056440651416779 -0.5542420148849487 -0.22801139950752258 0.08594156801700592 -4.269031047821045 2.7619943618774414 -0.2492784857749939 0.3756982386112213 0.3393042981624603 0.2993161082267761 -1.4836145639419556 1.2313735485076904 -0.09144295006990433 -0.04472322762012482 0.35178229212760925 -0.11079016327857971 -6.226772785186768 0.5135419964790344 -0.15412537753582 -0.2486647367477417 0.8541751503944397 -0.49053844809532166 -0.6960234642028809 -0.8743388056755066 0.09963913261890411 -0.17461830377578735 0.14385953545570374 0.03693990409374237 -6.268644332885742 -14.096746444702148 -4.218583583831787 -0.23712262511253357 19.584901809692383 1.2799687385559082 -1.310250997543335 -4.626804828643799 -3.419086456298828 -0.6266756057739258 0.4825694262981415 0.13968634605407715 7.229639530181885 -13.249168395996094 5.197643756866455 0.6093178391456604 18.034399032592773 -1.3041783571243286 1.0311524868011475 -5.361965656280518 6.618666172027588
-1.1567060835659504 52.561938762664795 0.2557232975959778 -3.4751181602478027 -1.6010162830352783 3.148965835571289 -2.701111316680908 12.157669067382812 3.2796618938446045 3.111027956008911 -9.099295616149902 1.2774831056594849 -4.8835930824279785 14.52993106842041 -4.027291297912598 7.803120136260986 -19.709510803222656 -5.576740264892578 -0.19117440283298492 -0.3356765806674957 0.04325338080525398 0.2238226979970932 -0.24836425483226776 0.059898268431425095 0.1269245594739914 -0.2095705270767212 0.2597338855266571 32.48994445800781 23.12835121154785 15.225634574890137 -24.56580352783203 -18.434207916259766 40.41575622558594 0.1003413274884224 -8.328908920288086 -1.1134432554244995 -0.21292676031589508 -0.03307740390300751 -0.2589551508426666 -0.0003064707852900028 0.13279199600219727 0.35531607270240784 0.11403344571590424 0.2246098816394806 0.002346613211557269 7.424527168273926 5.5434889793396 0.7115970253944397 0.03450525552034378 -0.3410179018974304 0.15401791036128998 3.2237775325775146 0.8371661305427551 0.10737984627485275 -0.10183282196521759 -0.07448151707649231 -0.12926411628723145 9.95814037322998 0.8687556385993958 -0.30482080578804016 0.4118315577507019 -0.11861552298069 0.0035086460411548615 2.3293697834014893 -0.8786990642547607 -0.6478937268257141 -0.18745067715644836 -0.17268924415111542 0.04076594486832619 -37.64122009277344 24.805789947509766 -22.429460525512695 23.028356552124023 -17.03195571899414 -38.80707550048828 0.3815210461616516 -7.093245983123779 1.755268931388855 -0.11791124194860458 0.08196905255317688 -0.2703893482685089 -0.024631792679429054 -0.05713324993848801 -0.05462317168712616 0.19844523072242737 -0.372463583946228 0.025349685922265053 -7.542124271392822 5.601330757141113 -0.31805509328842163 -0.1864076405763626 0.015435444191098213 0.3521004021167755 -2.999971628189087 0.7359710335731506 -0.0041620247066020966 -0.18626531958580017 0.030810488387942314 0.23861101269721985 -10.25964069366455 0.9799706339836121 -0.41802164912223816 0.07917989790439606 0.1725119650363922 -0.12763166427612305 -2.403468132019043 -0.40741172432899475 0.4221649169921875 0.3930842876434326 -0.16809718310832977 0.05245503783226013 -16.16765022277832 -28.54018211364746 -12.711499214172363 -0.9704919457435608 44.93941116333008 2.223433017730713 -3.2996912002563477 -8.233075141906738 -8.485834121704102 -0.18060295283794403 0.06302762031555176 0.10769136995077133 17.73522186279297 -26.87383270263672 12.990327835083008 0.3362853229045868 43.37382125854492 -1.9983322620391846 3.848519802093506 -9.205277442932129 11.69685173034668
-0.9592124260962009 73.8065779209137 0.7284048944711685 -2.043804407119751 5.0764055252075195 3.3282132148742676 -5.441488265991211 16.41782569885254 4.0789265632629395 3.988309860229492 -11.202821731567383 1.504648208618164 -7.231417179107666 18.202844619750977 -6.648725509643555 10.847396850585938 -26.515396118164062 -10.228249549865723 -0.08556580543518066 -0.20637989044189453 -0.015744483098387718 0.013124639168381691 -0.058329351246356964 0.0010527136037126184 -0.058079175651073456 -0.21648986637592316 0.19868093729019165 47.12657165527344 34.95945358276367 21.51540184020996 -28.88300323486328 -30.251697540283203 65.14767456054688 0.07996273040771484 -6.7810378074646 -0.6147952079772949 0.10791747272014618 -0.3462839424610138 0.009375721216201782 0.19623103737831116 0.1354466676712036 -0.13741807639598846 -0.13928169012069702 0.28163447976112366 0.004946916829794645 9.629064559936523 6.796252727508545 0.2931981384754181 -0.1928592324256897 -0.07499411702156067 0.1291297972202301 2.6426167488098145 1.0567033290863037 0.21249745786190033 -0.39119580388069153 -0.27038833498954773 -0.06538555771112442 11.88461685180664 1.1109366416931152 -0.21186615526676178 0.11165952682495117 0.38436007499694824 0.23733022809028625 2.174832582473755 -0.766208827495575 -0.2872697114944458 0.26395437121391296 -0.04742881655693054 -0.017655251547694206 -58.857818603515625 47.85068893432617 -24.193653106689453 29.48650550842285 -31.56159210205078 -66.81775665283203 0.7612230181694031 -19.25480842590332 3.698343515396118 -0.29315003752708435 0.09826517105102539 0.03780145198106766 0.4931158423423767 0.10368192195892334 -0.17014184594154358 0.3753277063369751 -0.08497073501348495 -0.14115317165851593 -8.8642578125 6.92369270324707 -0.6583063006401062 -0.363399863243103 -0.05862006917595863 0.06326080113649368 -3.911593198776245 0.7648329734802246 0.029478931799530983 -0.011912321671843529 -0.21185411512851715 0.42005154490470886 -12.146890640258789 0.8481205105781555 0.13175205886363983 0.10030031204223633 -0.29552707076072693 0.259809672832489 -2.8198864459991455 -0.5913785099983215 0.057440806180238724 0.12823566794395447 0.13312828540802002 0.21353735029697418 -34.82659912109375 -47.18350601196289 -29.60053825378418 -3.7642643451690674 73.56285095214844 4.722834587097168 -2.700880289077759 -9.093940734863281 -7.507384777069092 0.5211897492408752 0.029946155846118927 -0.046706944704055786 26.51774787902832 -34.77214431762695 19.796144485473633 0.7951937913894653 67.16978454589844 -2.470667600631714 7.099463939666748 -13.999576568603516 18.557252883911133
-1.6179246827960014 65.99743962287903 1.7025373876094818 1.9572055339813232 19.170658111572266 0.35260799527168274 -8.22459888458252 15.813350677490234 2.293755292892456 4.182959079742432 -10.315203666687012 0.8066800236701965 -7.401320457458496 15.753297805786133 -8.169114112854004 11.469279289245605 -24.55727195739746 -14.07638931274414 0.2435861974954605 0.34451812505722046 0.15396226942539215 -0.21660663187503815 0.4301586151123047 -0.2738279700279236 -0.07241381704807281 -0.18633747100830078 -0.23249304294586182 42.819820404052734 25.66693115234375 27.399494171142578 -26.870229721069336 -27.828590393066406 66.51922607421875 0.3802417516708374 2.0447158813476562 1.0984761714935303 0.02802482433617115 -0.44697776436805725 0.5833375453948975 0.004217766225337982 0.08808586001396179 -0.14885026216506958 0.11805442720651627 0.47215184569358826 -0.20459912717342377 7.501950740814209 5.664551734924316 0.1394163966178894 0.1318729966878891 0.9356527328491211 -0.7256165742874146 2.203542470932007 0.6120709776878357 0.04789917916059494 -0.41134214401245117 -0.23909027874469757 0.21781416237354279 10.566941261291504 0.9840881824493408 0.03560866788029671 -0.039906252175569534 -0.02388920821249485 0.24822357296943665 1.651817798614502 -1.0360161066055298 0.4454174339771271 0.6130303740501404 0.10731680691242218 -0.26797977089881897 -64.03194427490234 57.949554443359375 -14.620031356811523 28.99956703186035 -36.05466079711914 -78.94271850585938 1.6975740194320679 -38.23764419555664 6.186010360717773 -0.08392959833145142 -0.4358391761779785 0.09129691869020462 -0.2604367136955261 -0.004877664148807526 -0.19964362680912018 -0.22533652186393738 -0.06405896693468094 0.1942531019449234 -7.41699743270874 5.793023109436035 -0.4584316611289978 -0.12740151584148407 -0.05468263104557991 0.2713812589645386 -3.4893388748168945 1.2689671516418457 0.0812426283955574 -0.08881837874650955 0.1845887452363968 0.47354039549827576 -10.418926239013672 0.6120367050170898 0.26700329780578613 -0.30166158080101013 -0.20610718429088593 -0.07424046099185944 -2.0659339427948 -0.6966301798820496 -0.4033535420894623 -0.5299347639083862 0.22937940061092377 0.08079212158918381 -53.6692008972168 -58.5997200012207 -47.470741271972656 -3.132145881652832 82.29779815673828 3.4794833660125732 0.7854507565498352 -3.8108787536621094 3.491694211959839 -0.024878570809960365 0.2653534710407257 -0.25737372040748596 17.57262420654297 -23.41131019592285 12.265130043029785 1.296335220336914 63.68525314331055 -2.4214539527893066 9.2140531539917 -17.99500274658203 24.21561050415039
